<?xml version="1.0" encoding="UTF-8"?>
<!DOCTYPE svg PUBLIC "-//W3C//DTD SVG 1.1//EN" "http://www.w3.org/Graphics/SVG/1.1/DTD/svg11.dtd">
<!-- Creator: CorelDRAW X6 -->
<svg xmlns="http://www.w3.org/2000/svg" xml:space="preserve" width="25mm" height="7.503mm" version="1.1" style="shape-rendering:geometricPrecision; text-rendering:geometricPrecision; image-rendering:optimizeQuality; fill-rule:evenodd; clip-rule:evenodd"
viewBox="0 0 2500 750"
 xmlns:xlink="http://www.w3.org/1999/xlink">
 <defs>
  <style type="text/css">
   <![CDATA[
    .fil2 {fill:none;fill-rule:nonzero}
    .fil0 {fill:black;fill-rule:nonzero}
    .fil3 {fill:#E31E24;fill-rule:nonzero}
    .fil1 {fill:url(#id1)}
   ]]>
  </style>
   <clipPath id="id0" style="clip-rule:nonzero">
    <path d="M2385 0l59 0 -202 553c-3,10 -7,21 -11,31 -3,11 -6,21 -9,32 -3,10 -5,20 -7,29 -2,10 -2,19 -2,27 0,18 4,32 14,43 9,10 24,16 44,16 18,0 35,-4 51,-12 16,-7 32,-19 48,-34 16,-15 33,-34 49,-57 16,-23 33,-50 50,-81l20 -36 11 7 -20 36c-19,34 -38,63 -55,88 -17,24 -35,45 -52,61 -17,16 -35,28 -53,36 -18,7 -37,11 -57,11 -16,0 -30,-2 -42,-7 -12,-5 -23,-12 -31,-20 -8,-9 -14,-20 -18,-33 -5,-12 -7,-26 -7,-41 0,-14 2,-29 5,-45 2,-8 4,-17 7,-26 -15,24 -28,45 -42,64 -17,24 -34,45 -52,61 -17,16 -35,28 -53,36 -17,7 -37,11 -57,11 -16,0 -30,-2 -42,-7 -12,-5 -22,-12 -31,-20 -8,-9 -14,-20 -18,-33 -4,-12 -6,-26 -6,-41 0,-14 1,-29 5,-45 1,-9 3,-17 6,-27 -14,25 -28,46 -41,65 -18,25 -35,45 -52,61 -17,16 -35,28 -53,36 -18,7 -37,11 -57,11 -16,0 -30,-2 -42,-7 -13,-5 -23,-12 -31,-20 -8,-9 -14,-20 -18,-33 -5,-12 -7,-26 -7,-41 0,-11 1,-22 3,-33 2,-12 5,-25 8,-37 -34,57 -68,100 -101,128 -33,29 -67,43 -102,43 -16,0 -30,-3 -41,-8 -11,-6 -21,-15 -28,-25 -7,-11 -12,-23 -16,-37 -3,-15 -5,-30 -5,-47 0,-18 2,-38 5,-58 1,-4 2,-8 3,-12 -19,33 -37,61 -55,83 -19,25 -38,45 -57,61 -19,15 -38,26 -58,33 -19,7 -39,10 -60,10 -16,0 -30,-2 -42,-7 -13,-5 -23,-12 -31,-20 -8,-9 -14,-20 -19,-33 -4,-12 -6,-26 -6,-41 0,-14 1,-29 4,-45 2,-8 4,-16 6,-24 -12,19 -24,36 -38,53 -19,24 -39,45 -62,62 -23,17 -47,31 -72,41 -26,9 -53,14 -82,14 -47,0 -84,-12 -109,-37 -26,-24 -39,-61 -39,-110 0,-13 1,-27 3,-42 0,-2 1,-4 1,-6 -19,33 -37,62 -54,87 -18,24 -35,45 -52,61 -17,16 -35,28 -53,36 -18,7 -37,11 -57,11 -16,0 -30,-2 -42,-7 -13,-5 -23,-12 -31,-20 -8,-9 -14,-20 -18,-33 -5,-12 -7,-26 -7,-41 0,-11 1,-22 3,-33 2,-12 5,-25 8,-37 -34,57 -68,100 -101,128 -33,29 -67,43 -102,43 -16,0 -30,-3 -41,-8 -11,-6 -21,-15 -28,-25 -7,-11 -12,-23 -16,-37 -3,-15 -5,-30 -5,-47 0,-18 2,-38 5,-58 4,-20 9,-40 16,-61 10,-28 21,-53 34,-76 13,-23 27,-44 42,-62 15,-18 31,-33 48,-46 17,-13 34,-24 51,-33 16,-8 33,-14 49,-19 17,-4 32,-6 46,-6 15,0 28,2 37,7 10,4 18,11 24,19 7,8 11,18 14,30 2,11 4,24 4,38l106 -293 58 0 -175 480c-3,10 -7,21 -11,31 -3,11 -6,22 -9,32 -3,10 -5,20 -7,29 -2,10 -2,19 -2,27 0,18 4,32 14,43 9,10 24,16 44,16 18,0 35,-4 51,-11 16,-8 33,-19 49,-34 16,-16 32,-35 48,-58 16,-23 33,-50 50,-81l19 -34c10,-34 23,-66 39,-95 17,-29 37,-55 59,-77 22,-21 46,-38 72,-51 25,-12 51,-18 77,-18 26,0 46,6 61,18 15,13 23,30 23,52 0,13 -3,25 -8,37 -5,12 -12,23 -21,34 -10,10 -21,20 -34,30 -13,9 -28,17 -45,24 -20,8 -42,15 -67,19 -24,4 -52,7 -83,7 -8,21 -14,43 -18,66 -4,22 -7,46 -7,69 0,36 8,63 23,79 15,16 39,24 72,24 28,0 54,-6 78,-16 25,-11 48,-25 69,-42 21,-17 41,-37 58,-59 18,-22 33,-44 46,-67l17 -31 81 -221 -109 0 0 -16 115 0 37 -102 58 0 -37 102 117 0 0 16 -123 0 -94 258c-4,10 -8,21 -11,31 -3,11 -7,22 -9,32 -3,10 -5,20 -7,30 -2,9 -3,18 -3,26 0,18 5,32 15,43 10,10 25,16 44,16 20,0 38,-4 57,-11 18,-8 36,-19 54,-34 17,-15 35,-34 53,-57 17,-23 35,-50 52,-82l20 -34c9,-28 20,-53 33,-75 13,-23 27,-44 42,-62 15,-18 31,-33 48,-46 17,-13 34,-24 51,-33 16,-8 33,-14 49,-19 17,-4 32,-6 46,-6 15,0 28,2 37,7 10,4 18,11 24,19 7,8 11,18 14,30 2,11 4,24 4,38l31 -87 58 0 -100 274c-3,10 -7,21 -11,31 -3,11 -6,21 -9,32 -3,10 -5,20 -7,29 -2,10 -2,19 -2,27 0,18 4,32 14,43 9,10 24,16 44,16 18,0 35,-4 51,-11 16,-8 33,-19 49,-34 16,-16 32,-35 48,-58 16,-23 33,-50 50,-81l20 -36 0 0 84 -232 58 0 -99 274c-4,10 -8,21 -11,31 -4,11 -7,21 -10,32 -3,10 -5,20 -7,29 -1,10 -2,19 -2,27 0,18 5,32 14,43 10,10 25,16 45,16 17,0 34,-4 50,-12 17,-7 33,-19 49,-34 16,-15 32,-34 48,-57 16,-23 33,-50 50,-81l21 -36 0 0 185 -511zm-977 731c14,0 29,-4 43,-11 15,-8 30,-18 44,-31 15,-13 29,-28 42,-45 14,-18 26,-36 39,-56 12,-19 23,-40 33,-61 10,-21 19,-41 26,-61 8,-20 14,-40 18,-58 4,-18 6,-35 6,-50 0,-13 -2,-24 -5,-33 -4,-9 -8,-16 -13,-22 -6,-5 -12,-9 -19,-12 -6,-2 -14,-3 -21,-3 -14,0 -31,4 -49,13 -17,9 -36,23 -54,41 -19,19 -37,42 -55,70 -17,28 -34,61 -49,99 -12,31 -21,60 -27,87 -6,27 -9,49 -9,67 0,21 4,37 12,48 8,12 21,18 38,18zm-545 -443c-17,0 -34,5 -51,14 -17,10 -33,23 -49,40 -16,17 -31,37 -45,61 -14,23 -26,48 -36,76 29,-1 53,-3 74,-8 20,-5 38,-10 53,-17 12,-6 24,-13 35,-22 11,-9 21,-19 30,-30 9,-11 16,-23 21,-36 6,-13 8,-27 8,-41 0,-7 -1,-13 -3,-17 -2,-5 -5,-9 -9,-12 -3,-3 -8,-5 -12,-6 -5,-2 -11,-2 -16,-2zm-759 443c15,0 29,-4 43,-11 15,-8 30,-18 44,-31 15,-13 29,-28 42,-45 14,-18 26,-36 39,-56 12,-19 23,-40 33,-61 10,-21 19,-41 26,-61 8,-20 14,-40 18,-58 4,-18 6,-35 6,-50 0,-13 -2,-24 -5,-33 -4,-9 -8,-16 -13,-22 -5,-5 -12,-9 -19,-12 -6,-2 -14,-3 -21,-3 -14,0 -31,4 -49,13 -17,9 -36,23 -54,41 -19,19 -37,42 -55,70 -17,28 -34,61 -49,99 -12,31 -21,60 -27,87 -6,27 -9,49 -9,67 0,21 4,37 12,48 8,12 21,18 38,18z"/>
   </clipPath>
  <linearGradient id="id1" gradientUnits="userSpaceOnUse" x1="1988.61" y1="329.33" x2="1983.93" y2="393.15">
   <stop offset="0" style="stop-color:#E31E24"/>
   <stop offset="1" style="stop-color:black"/>
  </linearGradient>
 </defs>
 <g id="Vrstva_x0020_1">
  <metadata id="CorelCorpID_0Corel-Layer"/>
  <path class="fil0" d="M2385 0l59 0 -202 553c-3,10 -7,21 -11,31 -3,11 -6,21 -9,32 -3,10 -5,20 -7,29 -2,10 -2,19 -2,27 0,18 4,32 14,43 9,10 24,16 44,16 18,0 35,-4 51,-12 16,-7 32,-19 48,-34 16,-15 33,-34 49,-57 16,-23 33,-50 50,-81l20 -36 11 7 -20 36c-19,34 -38,63 -55,88 -17,24 -35,45 -52,61 -17,16 -35,28 -53,36 -18,7 -37,11 -57,11 -16,0 -30,-2 -42,-7 -12,-5 -23,-12 -31,-20 -8,-9 -14,-20 -18,-33 -5,-12 -7,-26 -7,-41 0,-14 2,-29 5,-45 2,-8 4,-17 7,-26 -15,24 -28,45 -42,64 -17,24 -34,45 -52,61 -17,16 -35,28 -53,36 -17,7 -37,11 -57,11 -16,0 -30,-2 -42,-7 -12,-5 -22,-12 -31,-20 -8,-9 -14,-20 -18,-33 -4,-12 -6,-26 -6,-41 0,-14 1,-29 5,-45 1,-9 3,-17 6,-27 -14,25 -28,46 -41,65 -18,25 -35,45 -52,61 -17,16 -35,28 -53,36 -18,7 -37,11 -57,11 -16,0 -30,-2 -42,-7 -13,-5 -23,-12 -31,-20 -8,-9 -14,-20 -18,-33 -5,-12 -7,-26 -7,-41 0,-11 1,-22 3,-33 2,-12 5,-25 8,-37 -34,57 -68,100 -101,128 -33,29 -67,43 -102,43 -16,0 -30,-3 -41,-8 -11,-6 -21,-15 -28,-25 -7,-11 -12,-23 -16,-37 -3,-15 -5,-30 -5,-47 0,-18 2,-38 5,-58 1,-4 2,-8 3,-12 -19,33 -37,61 -55,83 -19,25 -38,45 -57,61 -19,15 -38,26 -58,33 -19,7 -39,10 -60,10 -16,0 -30,-2 -42,-7 -13,-5 -23,-12 -31,-20 -8,-9 -14,-20 -19,-33 -4,-12 -6,-26 -6,-41 0,-14 1,-29 4,-45 2,-8 4,-16 6,-24 -12,19 -24,36 -38,53 -19,24 -39,45 -62,62 -23,17 -47,31 -72,41 -26,9 -53,14 -82,14 -47,0 -84,-12 -109,-37 -26,-24 -39,-61 -39,-110 0,-13 1,-27 3,-42 0,-2 1,-4 1,-6 -19,33 -37,62 -54,87 -18,24 -35,45 -52,61 -17,16 -35,28 -53,36 -18,7 -37,11 -57,11 -16,0 -30,-2 -42,-7 -13,-5 -23,-12 -31,-20 -8,-9 -14,-20 -18,-33 -5,-12 -7,-26 -7,-41 0,-11 1,-22 3,-33 2,-12 5,-25 8,-37 -34,57 -68,100 -101,128 -33,29 -67,43 -102,43 -16,0 -30,-3 -41,-8 -11,-6 -21,-15 -28,-25 -7,-11 -12,-23 -16,-37 -3,-15 -5,-30 -5,-47 0,-18 2,-38 5,-58 4,-20 9,-40 16,-61 10,-28 21,-53 34,-76 13,-23 27,-44 42,-62 15,-18 31,-33 48,-46 17,-13 34,-24 51,-33 16,-8 33,-14 49,-19 17,-4 32,-6 46,-6 15,0 28,2 37,7 10,4 18,11 24,19 7,8 11,18 14,30 2,11 4,24 4,38l106 -293 58 0 -175 480c-3,10 -7,21 -11,31 -3,11 -6,22 -9,32 -3,10 -5,20 -7,29 -2,10 -2,19 -2,27 0,18 4,32 14,43 9,10 24,16 44,16 18,0 35,-4 51,-11 16,-8 33,-19 49,-34 16,-16 32,-35 48,-58 16,-23 33,-50 50,-81l19 -34c10,-34 23,-66 39,-95 17,-29 37,-55 59,-77 22,-21 46,-38 72,-51 25,-12 51,-18 77,-18 26,0 46,6 61,18 15,13 23,30 23,52 0,13 -3,25 -8,37 -5,12 -12,23 -21,34 -10,10 -21,20 -34,30 -13,9 -28,17 -45,24 -20,8 -42,15 -67,19 -24,4 -52,7 -83,7 -8,21 -14,43 -18,66 -4,22 -7,46 -7,69 0,36 8,63 23,79 15,16 39,24 72,24 28,0 54,-6 78,-16 25,-11 48,-25 69,-42 21,-17 41,-37 58,-59 18,-22 33,-44 46,-67l17 -31 81 -221 -109 0 0 -16 115 0 37 -102 58 0 -37 102 117 0 0 16 -123 0 -94 258c-4,10 -8,21 -11,31 -3,11 -7,22 -9,32 -3,10 -5,20 -7,30 -2,9 -3,18 -3,26 0,18 5,32 15,43 10,10 25,16 44,16 20,0 38,-4 57,-11 18,-8 36,-19 54,-34 17,-15 35,-34 53,-57 17,-23 35,-50 52,-82l20 -34c9,-28 20,-53 33,-75 13,-23 27,-44 42,-62 15,-18 31,-33 48,-46 17,-13 34,-24 51,-33 16,-8 33,-14 49,-19 17,-4 32,-6 46,-6 15,0 28,2 37,7 10,4 18,11 24,19 7,8 11,18 14,30 2,11 4,24 4,38l31 -87 58 0 -100 274c-3,10 -7,21 -11,31 -3,11 -6,21 -9,32 -3,10 -5,20 -7,29 -2,10 -2,19 -2,27 0,18 4,32 14,43 9,10 24,16 44,16 18,0 35,-4 51,-11 16,-8 33,-19 49,-34 16,-16 32,-35 48,-58 16,-23 33,-50 50,-81l20 -36 0 0 84 -232 58 0 -99 274c-4,10 -8,21 -11,31 -4,11 -7,21 -10,32 -3,10 -5,20 -7,29 -1,10 -2,19 -2,27 0,18 5,32 14,43 10,10 25,16 45,16 17,0 34,-4 50,-12 17,-7 33,-19 49,-34 16,-15 32,-34 48,-57 16,-23 33,-50 50,-81l21 -36 0 0 185 -511zm-977 731c14,0 29,-4 43,-11 15,-8 30,-18 44,-31 15,-13 29,-28 42,-45 14,-18 26,-36 39,-56 12,-19 23,-40 33,-61 10,-21 19,-41 26,-61 8,-20 14,-40 18,-58 4,-18 6,-35 6,-50 0,-13 -2,-24 -5,-33 -4,-9 -8,-16 -13,-22 -6,-5 -12,-9 -19,-12 -6,-2 -14,-3 -21,-3 -14,0 -31,4 -49,13 -17,9 -36,23 -54,41 -19,19 -37,42 -55,70 -17,28 -34,61 -49,99 -12,31 -21,60 -27,87 -6,27 -9,49 -9,67 0,21 4,37 12,48 8,12 21,18 38,18zm-545 -443c-17,0 -34,5 -51,14 -17,10 -33,23 -49,40 -16,17 -31,37 -45,61 -14,23 -26,48 -36,76 29,-1 53,-3 74,-8 20,-5 38,-10 53,-17 12,-6 24,-13 35,-22 11,-9 21,-19 30,-30 9,-11 16,-23 21,-36 6,-13 8,-27 8,-41 0,-7 -1,-13 -3,-17 -2,-5 -5,-9 -9,-12 -3,-3 -8,-5 -12,-6 -5,-2 -11,-2 -16,-2zm-759 443c15,0 29,-4 43,-11 15,-8 30,-18 44,-31 15,-13 29,-28 42,-45 14,-18 26,-36 39,-56 12,-19 23,-40 33,-61 10,-21 19,-41 26,-61 8,-20 14,-40 18,-58 4,-18 6,-35 6,-50 0,-13 -2,-24 -5,-33 -4,-9 -8,-16 -13,-22 -5,-5 -12,-9 -19,-12 -6,-2 -14,-3 -21,-3 -14,0 -31,4 -49,13 -17,9 -36,23 -54,41 -19,19 -37,42 -55,70 -17,28 -34,61 -49,99 -12,31 -21,60 -27,87 -6,27 -9,49 -9,67 0,21 4,37 12,48 8,12 21,18 38,18z"/>
  <g style="clip-path:url(#id0)">
   <g id="_792415712">
    <polygon id="1" class="fil1" points="1896,261 2077,261 2077,462 1896,462 "/>
   </g>
  </g>
  <path class="fil2" d="M2385 0l59 0 -202 553c-3,10 -7,21 -11,31 -3,11 -6,21 -9,32 -3,10 -5,20 -7,29 -2,10 -2,19 -2,27 0,18 4,32 14,43 9,10 24,16 44,16 18,0 35,-4 51,-12 16,-7 32,-19 48,-34 16,-15 33,-34 49,-57 16,-23 33,-50 50,-81l20 -36 11 7 -20 36c-19,34 -38,63 -55,88 -17,24 -35,45 -52,61 -17,16 -35,28 -53,36 -18,7 -37,11 -57,11 -16,0 -30,-2 -42,-7 -12,-5 -23,-12 -31,-20 -8,-9 -14,-20 -18,-33 -5,-12 -7,-26 -7,-41 0,-14 2,-29 5,-45 2,-8 4,-17 7,-26 -15,24 -28,45 -42,64 -17,24 -34,45 -52,61 -17,16 -35,28 -53,36 -17,7 -37,11 -57,11 -16,0 -30,-2 -42,-7 -12,-5 -22,-12 -31,-20 -8,-9 -14,-20 -18,-33 -4,-12 -6,-26 -6,-41 0,-14 1,-29 5,-45 1,-9 3,-17 6,-27 -14,25 -28,46 -41,65 -18,25 -35,45 -52,61 -17,16 -35,28 -53,36 -18,7 -37,11 -57,11 -16,0 -30,-2 -42,-7 -13,-5 -23,-12 -31,-20 -8,-9 -14,-20 -18,-33 -5,-12 -7,-26 -7,-41 0,-11 1,-22 3,-33 2,-12 5,-25 8,-37 -34,57 -68,100 -101,128 -33,29 -67,43 -102,43 -16,0 -30,-3 -41,-8 -11,-6 -21,-15 -28,-25 -7,-11 -12,-23 -16,-37 -3,-15 -5,-30 -5,-47 0,-18 2,-38 5,-58 1,-4 2,-8 3,-12 -19,33 -37,61 -55,83 -19,25 -38,45 -57,61 -19,15 -38,26 -58,33 -19,7 -39,10 -60,10 -16,0 -30,-2 -42,-7 -13,-5 -23,-12 -31,-20 -8,-9 -14,-20 -19,-33 -4,-12 -6,-26 -6,-41 0,-14 1,-29 4,-45 2,-8 4,-16 6,-24 -12,19 -24,36 -38,53 -19,24 -39,45 -62,62 -23,17 -47,31 -72,41 -26,9 -53,14 -82,14 -47,0 -84,-12 -109,-37 -26,-24 -39,-61 -39,-110 0,-13 1,-27 3,-42 0,-2 1,-4 1,-6 -19,33 -37,62 -54,87 -18,24 -35,45 -52,61 -17,16 -35,28 -53,36 -18,7 -37,11 -57,11 -16,0 -30,-2 -42,-7 -13,-5 -23,-12 -31,-20 -8,-9 -14,-20 -18,-33 -5,-12 -7,-26 -7,-41 0,-11 1,-22 3,-33 2,-12 5,-25 8,-37 -34,57 -68,100 -101,128 -33,29 -67,43 -102,43 -16,0 -30,-3 -41,-8 -11,-6 -21,-15 -28,-25 -7,-11 -12,-23 -16,-37 -3,-15 -5,-30 -5,-47 0,-18 2,-38 5,-58 4,-20 9,-40 16,-61 10,-28 21,-53 34,-76 13,-23 27,-44 42,-62 15,-18 31,-33 48,-46 17,-13 34,-24 51,-33 16,-8 33,-14 49,-19 17,-4 32,-6 46,-6 15,0 28,2 37,7 10,4 18,11 24,19 7,8 11,18 14,30 2,11 4,24 4,38l106 -293 58 0 -175 480c-3,10 -7,21 -11,31 -3,11 -6,22 -9,32 -3,10 -5,20 -7,29 -2,10 -2,19 -2,27 0,18 4,32 14,43 9,10 24,16 44,16 18,0 35,-4 51,-11 16,-8 33,-19 49,-34 16,-16 32,-35 48,-58 16,-23 33,-50 50,-81l19 -34c10,-34 23,-66 39,-95 17,-29 37,-55 59,-77 22,-21 46,-38 72,-51 25,-12 51,-18 77,-18 26,0 46,6 61,18 15,13 23,30 23,52 0,13 -3,25 -8,37 -5,12 -12,23 -21,34 -10,10 -21,20 -34,30 -13,9 -28,17 -45,24 -20,8 -42,15 -67,19 -24,4 -52,7 -83,7 -8,21 -14,43 -18,66 -4,22 -7,46 -7,69 0,36 8,63 23,79 15,16 39,24 72,24 28,0 54,-6 78,-16 25,-11 48,-25 69,-42 21,-17 41,-37 58,-59 18,-22 33,-44 46,-67l17 -31 81 -221 -109 0 0 -16 115 0 37 -102 58 0 -37 102 117 0 0 16 -123 0 -94 258c-4,10 -8,21 -11,31 -3,11 -7,22 -9,32 -3,10 -5,20 -7,30 -2,9 -3,18 -3,26 0,18 5,32 15,43 10,10 25,16 44,16 20,0 38,-4 57,-11 18,-8 36,-19 54,-34 17,-15 35,-34 53,-57 17,-23 35,-50 52,-82l20 -34c9,-28 20,-53 33,-75 13,-23 27,-44 42,-62 15,-18 31,-33 48,-46 17,-13 34,-24 51,-33 16,-8 33,-14 49,-19 17,-4 32,-6 46,-6 15,0 28,2 37,7 10,4 18,11 24,19 7,8 11,18 14,30 2,11 4,24 4,38l31 -87 58 0 -100 274c-3,10 -7,21 -11,31 -3,11 -6,21 -9,32 -3,10 -5,20 -7,29 -2,10 -2,19 -2,27 0,18 4,32 14,43 9,10 24,16 44,16 18,0 35,-4 51,-11 16,-8 33,-19 49,-34 16,-16 32,-35 48,-58 16,-23 33,-50 50,-81l20 -36 0 0 84 -232 58 0 -99 274c-4,10 -8,21 -11,31 -4,11 -7,21 -10,32 -3,10 -5,20 -7,29 -1,10 -2,19 -2,27 0,18 5,32 14,43 10,10 25,16 45,16 17,0 34,-4 50,-12 17,-7 33,-19 49,-34 16,-15 32,-34 48,-57 16,-23 33,-50 50,-81l21 -36 0 0 185 -511zm-977 731c14,0 29,-4 43,-11 15,-8 30,-18 44,-31 15,-13 29,-28 42,-45 14,-18 26,-36 39,-56 12,-19 23,-40 33,-61 10,-21 19,-41 26,-61 8,-20 14,-40 18,-58 4,-18 6,-35 6,-50 0,-13 -2,-24 -5,-33 -4,-9 -8,-16 -13,-22 -6,-5 -12,-9 -19,-12 -6,-2 -14,-3 -21,-3 -14,0 -31,4 -49,13 -17,9 -36,23 -54,41 -19,19 -37,42 -55,70 -17,28 -34,61 -49,99 -12,31 -21,60 -27,87 -6,27 -9,49 -9,67 0,21 4,37 12,48 8,12 21,18 38,18zm-545 -443c-17,0 -34,5 -51,14 -17,10 -33,23 -49,40 -16,17 -31,37 -45,61 -14,23 -26,48 -36,76 29,-1 53,-3 74,-8 20,-5 38,-10 53,-17 12,-6 24,-13 35,-22 11,-9 21,-19 30,-30 9,-11 16,-23 21,-36 6,-13 8,-27 8,-41 0,-7 -1,-13 -3,-17 -2,-5 -5,-9 -9,-12 -3,-3 -8,-5 -12,-6 -5,-2 -11,-2 -16,-2zm-759 443c15,0 29,-4 43,-11 15,-8 30,-18 44,-31 15,-13 29,-28 42,-45 14,-18 26,-36 39,-56 12,-19 23,-40 33,-61 10,-21 19,-41 26,-61 8,-20 14,-40 18,-58 4,-18 6,-35 6,-50 0,-13 -2,-24 -5,-33 -4,-9 -8,-16 -13,-22 -5,-5 -12,-9 -19,-12 -6,-2 -14,-3 -21,-3 -14,0 -31,4 -49,13 -17,9 -36,23 -54,41 -19,19 -37,42 -55,70 -17,28 -34,61 -49,99 -12,31 -21,60 -27,87 -6,27 -9,49 -9,67 0,21 4,37 12,48 8,12 21,18 38,18z"/>
  <path class="fil3" d="M2031 164c0,-9 3,-17 9,-24 7,-6 14,-9 23,-9 10,0 17,3 24,9 6,6 9,14 9,23 0,5 -1,9 -2,13 -2,4 -4,8 -7,11 -3,2 -7,5 -11,6 -4,2 -8,3 -13,3 -9,0 -17,-3 -23,-9 -6,-6 -9,-14 -9,-23z"/>
  <path class="fil0" d="M2078 34c0,-10 3,-17 10,-24 6,-7 14,-10 23,-10 9,0 17,3 23,10 7,6 10,14 10,23 0,5 -1,9 -3,13 -1,4 -4,7 -7,10 -3,3 -6,5 -10,7 -4,2 -9,3 -13,3 -9,0 -17,-4 -23,-10 -7,-6 -10,-13 -10,-22z"/>
 </g>
</svg>
